<svg id="svg1015" xmlns="http://www.w3.org/2000/svg" viewBox="0 0 21.06 26.22">
  <defs>
    <style>
      .cls-1 {
        fill: #fff;
      }
    </style>
  </defs>
  <title>icon-9</title>
  <path id="path4021" class="cls-1" d="M150.33,129.43a0.22,0.22,0,0,0-.23.23v6a0.22,0.22,0,0,0,.23.23h3.82l3.75-6.49h-7.57Zm9.49,0-3.75,6.49h1.59l3.15-5.45v-0.81a0.22,0.22,0,0,0-.23-0.23h-0.76Zm-4.37-6.49c-1.09,0-2.18,0-3.11.07a12,12,0,0,0-2.26.25,9.27,9.27,0,0,0-3.35,1.27,4,4,0,0,0-1.45,3.21v9.85c0,0.49-.18,1.25-0.29,2.13a4.37,4.37,0,0,0,.52,3.07l3.76,5.74a1.39,1.39,0,0,0,1.16.63h10.06a1.39,1.39,0,0,0,1.16-.63l3.76-5.74a4.37,4.37,0,0,0,.52-3.07c-0.12-.88-0.29-1.64-0.29-2.13v-9.85a4,4,0,0,0-1.46-3.21,9.27,9.27,0,0,0-3.35-1.27,11.93,11.93,0,0,0-2.25-.25c-0.93,0-2-.07-3.11-0.07h0Zm-5.12,5.59h10.25a1.14,1.14,0,0,1,1.13,1.13v6a1.14,1.14,0,0,1-1.13,1.13H150.33a1.14,1.14,0,0,1-1.13-1.13v-6A1.14,1.14,0,0,1,150.33,128.53Z" transform="translate(-144.93 -122.94)"/>
</svg>
