<svg id="svg1015" xmlns="http://www.w3.org/2000/svg" viewBox="0 0 31.06 21.09">
  <defs>
    <style>
      .cls-1 {
        fill: #fff;
      }
    </style>
  </defs>
  <title>icon-10</title>
  <path id="path4031" class="cls-1" d="M27.12,179.45a4.84,4.84,0,1,0,4.9,4.84h0a4.84,4.84,0,0,0-4.84-4.84H27.12Zm0.06,2.75a2.09,2.09,0,0,1,2.09,2.09h0a2.09,2.09,0,0,1-2.09,2.09h0A2.09,2.09,0,0,1,27.18,182.2ZM52.41,168a1,1,0,0,0-.81.48l-8,13.89a3.79,3.79,0,0,0-.75,1.89,3.41,3.41,0,0,0,.7,1.85l1.44,2.5a1,1,0,0,0,1.32.35h0a1,1,0,0,0,.35-1.32l-1.44-2.5a6.88,6.88,0,0,1-.44-0.85,8.08,8.08,0,0,1,.5-1l8-13.89a1,1,0,0,0-.86-1.44h0Zm-26.66,5.21a0.9,0.9,0,0,0-.9.9V179a5.69,5.69,0,0,1,2.33-.5,5.75,5.75,0,0,1,5.74,5.74c0,0.06,0,.11,0,0.17h9c0-.06,0-0.12,0-0.18A4.58,4.58,0,0,1,42.8,182l5-8.72H25.75ZM52,173.56L46,183.82c-0.14.25-.21,0.38-0.27,0.51l0.06,0.12h5.45a0.9,0.9,0,0,0,.9-0.9v-9.42a0.89,0.89,0,0,0-.21-0.58h0Z" transform="translate(-22.34 -168.03)"/>
</svg>
