<svg id="svg1015" xmlns="http://www.w3.org/2000/svg" viewBox="0 0 30.56 29.63">
  <defs>
    <style>
      .cls-1 {
        fill: #fff;
      }
    </style>
  </defs>
  <title>icon-3</title>
  <path id="path3977" class="cls-1" d="M159.89,24.1c-0.74,0-1.76,1.13-2.21,1.13l-13.46.84v2.56l13.46,0.84c0.38,0,1.16.79,1.85,1l-2.2,3.8a2.32,2.32,0,0,0-2.34,1.1l-6.8,11.77,5.41,3.13,6.8-11.77a2.32,2.32,0,0,0-.22-2.57l3.1-5.37V24.1h-3.41ZM147.75,48l-1.52,2.64,5.41,3.13,1.52-2.64ZM164.19,24.1v6.49h0a1.31,1.31,0,0,0,1.07-.65v-5.2a1.31,1.31,0,0,0-1.07-.65h0Zm2,0.66v5.18H171c1.19,0,1.58-1.11,2.17-1.11h1.6v-3h-1.6c-0.59,0-1-1.11-2.17-1.11h-4.8Z" transform="translate(-144.22 -24.1)"/>
</svg>
