<svg id="svg1015" xmlns="http://www.w3.org/2000/svg" viewBox="0 0 26.63 25.96">
  <defs>
    <style>
      .cls-1 {
        fill: #fff;
      }
    </style>
  </defs>
  <title>icon-11</title>
  <path id="path4033" class="cls-1" d="M89.23,165.62l-1.83,3-3.51-.45-0.34,3.52-3.36,1.11,1.22,3.32-2.54,2.46,2.54,2.46-1.22,3.32,3.36,1.11L83.89,189l3.51-.45,1.83,3,3-1.93,3,1.93,1.83-3,3.51,0.45,0.34-3.52,3.36-1.11L103,181.06l2.54-2.46L103,176.15l1.22-3.32-3.36-1.11-0.34-3.52-3.51.45-1.83-3-3,1.93Zm5.5,7.8a0.79,0.79,0,0,1,.69,1.19h0l-5.07,8.77a0.79,0.79,0,0,1-1.08.29h0A0.79,0.79,0,0,1,89,182.6L94,173.82a0.79,0.79,0,0,1,.69-0.4h0Zm-6,.05A2.53,2.53,0,1,1,86.18,176,2.54,2.54,0,0,1,88.71,173.48Zm0,1.59a0.95,0.95,0,1,0,.95.95A0.93,0.93,0,0,0,88.71,175.06Zm7,3.61a2.53,2.53,0,1,1-2.53,2.53A2.54,2.54,0,0,1,95.67,178.67Zm0,1.58a0.95,0.95,0,1,0,.95.95A0.93,0.93,0,0,0,95.67,180.26Z" transform="translate(-78.88 -165.62)"/>
</svg>
