<svg id="svg1015" xmlns="http://www.w3.org/2000/svg" viewBox="0 0 29.42 28.02">
  <defs>
    <style>
      .cls-1 {
        fill: #fff;
      }
    </style>
  </defs>
  <title>icon-6</title>
  <path id="path4003" class="cls-1" d="M148.52,69.59l-7.77,13.47V84h21.43l8-13.86V69.59h-1l-7.67,13.29H142.09l7.67-13.29h-1.24Zm21.65,2-7.58,13.13H140.75v1.08h22.46l0.15-.27,6.81-11.79V71.55Zm-17.75-5.46v8l0.21,0.1a7,7,0,0,0,6,0l0.2-.1v-8a7.49,7.49,0,0,1-6.42,0h0Zm0,9v2.37L154,79.3a3.82,3.82,0,0,0,3.24,0l1.59-1.79V75.14a7.92,7.92,0,0,1-6.42,0h0Zm0,11.52v6.2c0,0.31,1.42,1.25,3.21,1.25s3.21-.94,3.21-1.25v-6.2h-6.42Z" transform="translate(-140.75 -66.09)"/>
</svg>
