<svg id="svg1015" xmlns="http://www.w3.org/2000/svg" viewBox="0 0 35.78 28.92">
  <defs>
    <style>
      .cls-1 {
        fill: #fff;
      }
    </style>
  </defs>
  <title>icon-1</title>
  <path id="path3979" class="cls-1" d="M39.45,35.6H39.3a0.88,0.88,0,0,0-.22,0,1.25,1.25,0,0,0-.71.62L35.66,41l0.21-.1A3.25,3.25,0,0,1,38,40.59l0.12,0Zm5.63-10.87v0.9H42.71a8.82,8.82,0,0,0-6.86,4l-0.77,1.34-2.92-1.69-0.53.92a7.15,7.15,0,0,1-.57,4.88l-9,15.54,4.3,2.48c1.13,0.64,1.74.84,2.18,0.17a3.38,3.38,0,0,1,2.3-4l0.32-.56a3.38,3.38,0,0,1,2.29-4l0.32-.56a3.36,3.36,0,0,1,.37-2.43l3.42-5.93a2.19,2.19,0,0,1,1.22-1,1.88,1.88,0,0,1,.41-0.08l0.31-1.21-2-1.15L38.31,31a5.5,5.5,0,0,1,2-1.77,5.65,5.65,0,0,1,2.44-.76h2.37v0.9H47.2V24.74H45.08Zm3,0v4.65h7.23l2.54-1.06V25.8l-2.54-1.06H48.1Z" transform="translate(-22.09 -24.74)"/>
</svg>
