<svg id="svg1015" xmlns="http://www.w3.org/2000/svg" viewBox="0 0 27.5 26.21">
  <defs>
    <style>
      .cls-1 {
        fill: #fff;
      }
    </style>
  </defs>
  <title>icon-7</title>
  <path id="path4009" class="cls-1" d="M38.9,144.84a1,1,0,0,0,0,.9l-1.63,2.82a0.53,0.53,0,0,0,.93.53l1.63-2.82a1,1,0,0,0,.77-0.48L52.81,124.6a1,1,0,0,0-.35-1.31h0a1,1,0,0,0-1.31.35h0Zm-3.25,0a1,1,0,0,0,0,.9L34,148.56a0.53,0.53,0,0,0,.93.53l1.63-2.82a1,1,0,0,0,.77-0.48L49.56,124.6a1,1,0,0,0-.35-1.31h0a1,1,0,0,0-1.31.35h0Zm1.82-21.22a12,12,0,0,0-3.68,23.49l0.9-1.56a1.81,1.81,0,0,1,.18-1.17h0l0.71-1.22a7.69,7.69,0,0,1-3.26-1.72l2.84-2.84a3.74,3.74,0,0,0,1.86.78v1.29l1.32-2.29a2.86,2.86,0,1,1,1.92-3.32l0.59-1a3.78,3.78,0,0,0-.43-0.69l2-2,2.83-4.91a12,12,0,0,0-7.75-2.85h0ZM37,127.93v4a3.74,3.74,0,0,0-1.86.78l-2.84-2.84A7.71,7.71,0,0,1,37,127.93h0Zm0.9,0a7.71,7.71,0,0,1,4.71,1.94l-2.84,2.84a3.74,3.74,0,0,0-1.86-.78v-4Zm-6.24,2.57,2.84,2.84a3.74,3.74,0,0,0-.78,1.86h-4a7.71,7.71,0,0,1,1.94-4.71h0Zm17.47,2.23-7.8,13.51a1.82,1.82,0,0,1-.92.74l-0.22.38a12,12,0,0,0,8.94-14.64h0Zm-19.4,3.37h4a3.73,3.73,0,0,0,.78,1.86l-2.84,2.84a7.71,7.71,0,0,1-1.94-4.71h0Z" transform="translate(-25.44 -123.15)"/>
</svg>
