<svg id="svg1015" xmlns="http://www.w3.org/2000/svg" viewBox="0 0 23.71 31.31">
  <defs>
    <style>
      .cls-1 {
        fill: #fff;
      }
    </style>
  </defs>
  <title>icon-2</title>
  <path id="path4001" class="cls-1" d="M104.79,23.71a0.71,0.71,0,0,0-1,.26l-3.69,6.4,2.41,1.39,4-7ZM95,36.43l1.63,1.84L88.88,51.63a0.71,0.71,0,0,0,.26,1L93,54.82a0.71,0.71,0,0,0,1-.26l15.71-27.22a0.71,0.71,0,0,0-.26-1l-1.83-1.06a0.42,0.42,0,0,0-.15.16c-0.22.38,0.1,1.08-.12,1.47s-1,.46-1.21.84,0.1,1.08-.12,1.47-1,.46-1.21.84,0.1,1.08-.12,1.47l-0.19.3a2,2,0,0,0-1.91,1,1.78,1.78,0,0,0,0,1.92A8.16,8.16,0,0,1,100,38.13l-2.61-2.9a5.8,5.8,0,0,0-1.22.35Q95.54,36,95,36.43h0ZM86.1,41a0.63,0.63,0,0,0,.22.77l0.82,0.58A0.62,0.62,0,0,0,88,42.21a34.79,34.79,0,0,1,7.66-7.37A5,5,0,0,1,98,34.26l0.84,0.05c1.06,0.09,2.47.11,2.89-.9a7.94,7.94,0,0,1,.41-0.89l-2.82-1.63A7.66,7.66,0,0,0,96,31a6.58,6.58,0,0,0-2.49,1.79,68.09,68.09,0,0,0-7.31,8.09,0.5,0.5,0,0,0-.07.11h0Z" transform="translate(-86.04 -23.61)"/>
</svg>
