<svg id="svg1015" xmlns="http://www.w3.org/2000/svg" viewBox="0 0 21.83 31.99">
  <defs>
    <style>
      .cls-1 {
        fill: #fff;
      }
    </style>
  </defs>
  <title>icon-8</title>
  <path id="path4011" class="cls-1" d="M98.79,118l-1.28,1.59,4.23,2.44,0.74-1.9Zm-0.7,3-1.58,2.74A5.05,5.05,0,0,0,90.78,126l-9.45,16.37a5,5,0,1,0,8.74,5L99.52,131a5.05,5.05,0,0,0-.84-6.13l0.41-.72L100,124.7l0.85-1.46-0.86-.49,0.32-.56Zm-2.37,3.4a5.47,5.47,0,0,0-2.62,2.48L82.86,144.57a7.44,7.44,0,0,0-.79,1.88,3.66,3.66,0,0,1,.1-3.57l9.64-16.59c1.08-1.85,2.42-1.92,3.91-2h0Z" transform="translate(-80.65 -117.95)"/>
</svg>
