<svg id="svg1015" xmlns="http://www.w3.org/2000/svg" viewBox="0 0 29.14 29.17">
  <defs>
    <style>
      .cls-1 {
        fill: #fff;
      }
    </style>
  </defs>
  <title>icon-5</title>
  <path id="path3995" class="cls-1" d="M102.85,67.06l-11.23.36V72.2l0.69,0L91,74.85l3.17,1.83,2.48-4.31,6.21,0.2V67.06Zm0.9,0.56V72h2.6l2.11-1.33V69l-2.11-1.33h-2.6ZM89.13,74.81l-0.88.34-3.61,6.25,0,1.45c-1.73,3.16-3.47,6.44-5.28,10a24.12,24.12,0,0,0,4.25,3.38L94.24,77.76Zm-3,.69a0.32,0.32,0,0,0-.25.16l-1.76,3.06a0.32,0.32,0,0,0,.12.44l0.5,0.29,2.08-3.61-0.5-.29a0.32,0.32,0,0,0-.18,0h0Z" transform="translate(-79.32 -67.06)"/>
</svg>
