<svg id="svg1015" xmlns="http://www.w3.org/2000/svg" viewBox="0 0 37.68 30.63">
  <defs>
    <style>
      .cls-1 {
        fill: #fff;
      }
    </style>
  </defs>
  <title>icon-4</title>
  <path id="path3989" class="cls-1" d="M60.06,66.86v2.45l-4.92.77H48.36v-4h6.78Zm-34.32,23L23.48,91l-0.19-.11-0.9,1.56,2.34,1.35,0.9-1.56-0.19-.11,1-.54,2.06,1.19,0,1.15-0.19-.11-0.9,1.56,2.34,1.35,0.9-1.56-0.19-.11-0.11-2.55ZM46.16,67a9.71,9.71,0,0,0-6.9,3.07,1.36,1.36,0,0,1,.89.16,1.32,1.32,0,0,1,.61.78,0.57,0.57,0,0,1,0,.27,0.58,0.58,0,0,1,.27,0l0.08,0a8,8,0,0,1,5.06-2.18h1.3V67h-1.3ZM35.4,68.45a0.34,0.34,0,0,0-.46.12l-2.34,4a0.34,0.34,0,0,0,.12.46l1.09,0.63a0.34,0.34,0,0,0,.46-0.12l0.66-1.15,0.2,0.11a1,1,0,0,1,.18-0.23,0.58,0.58,0,0,1,.24-0.12,0.58,0.58,0,0,1-.11-0.25A1.32,1.32,0,0,1,35.76,71,1.4,1.4,0,0,1,36,70.76l-0.1-.06,0.67-1.15a0.34,0.34,0,0,0-.12-0.46Zm-0.26,5.47-1.25.77a0.76,0.76,0,0,0-.26.27L25.87,88.39a0.76,0.76,0,0,0-.1.42L31.25,92a0.76,0.76,0,0,0,.31-0.3l7.75-13.42a0.76,0.76,0,0,0,.1-0.36l0-1.47a1.09,1.09,0,0,1-.28,0,0.59,0.59,0,0,1-.23-0.15,0.58,0.58,0,0,1-.16.22A1.33,1.33,0,0,1,37,76.13a0.58,0.58,0,0,1-.08-0.26,0.57,0.57,0,0,1-.26.06,1.33,1.33,0,0,1-1.18-1.41,0.58,0.58,0,0,1,.11-0.25,0.59,0.59,0,0,1-.24-0.12,1,1,0,0,1-.18-0.23h0ZM39.7,71c0.47,0.27-.12.54,0.23,1s0.71-.11.9,0.39-0.44.34-.44,0.88,0.62,0.37.44,0.88-0.55,0-.9.39,0.24,0.68-.23,1-0.41-.37-0.94-0.28-0.26.68-.79,0.58-0.08-.55-0.54-0.82-0.63.35-1-.06,0.29-.47.11-1-0.71-.14-0.71-0.68,0.53-.17.71-0.68-0.46-.56-0.11-1,0.51,0.21,1-.06,0-.72.54-0.82,0.26,0.49.79,0.58,0.47-.55.94-0.28h0Z" transform="translate(-22.38 -66.09)"/>
</svg>
