<svg id="Layer_1" data-name="Layer 1" xmlns="http://www.w3.org/2000/svg" viewBox="0 0 215.4 96.11">
  <defs>
    <style>
      .cls-1 {
        fill: #fff;
      }
    </style>
  </defs>
  <title>logo</title>
  <path class="cls-1" d="M86.46,101.94c1.45-.55,5.19-2.24,5.14-6.56,0-4.53-5.29-7-12.07-7-5.73,0-11.59.16-16.52,0.16,0.14,7.13.13,21.38,0,27.92,5.41,0.05,11.27.18,17.28,0.15,7.18,0,12.34-2.77,12.37-7.83C92.68,104,88.13,102.48,86.46,101.94ZM74.87,99.81c0-1.87,0-4.14,0-5.72a23.3,23.3,0,0,1,3.26.1,2.38,2.38,0,0,1,2.09,2.65A2.55,2.55,0,0,1,78,99.62,18.68,18.68,0,0,1,74.87,99.81Zm3.38,5.08a2.67,2.67,0,0,1,2.52,2.89,2.61,2.61,0,0,1-2.43,2.91,21.53,21.53,0,0,1-3.4.23c0-2.12,0-4.59,0-6.21A21.72,21.72,0,0,1,78.25,104.89Zm117.57,11.67H181.22v7.07c-3.75,0-7.51.06-11.27,0V109h4a80.21,80.21,0,0,0,3.22-20.58h26.15c-0.12,6.33-.1,14.54-0.14,20.57h4v14.62q-5.82.07-11.38,0v-7.07ZM191.18,109c0-4,0-8.95,0-13.1h-4.45a87.34,87.34,0,0,1-1.82,13.1h6.27Zm38.55-12.82c0,7.28,0,13.75-.07,20.32,4.25,0,8.48,0,12.71,0-0.07-8.44-.19-19.12,0-28.05H215.79c-0.94,12.44-1,20.74-6.32,25.89v2.19c3.48,0.06,7.41,0,11,0,4-3.62,4.89-12.12,5.47-20.36h3.79ZM112.09,156.81c2.22,0,4.66.61,4.66,4.18,0,3.41-2.28,4.16-4.48,4.2-1.14,0-2.28,0-3.39,0,0-2.85,0-5.71,0-8.39h3.25Zm0.11-6.13c-1.12,0-2.25,0-3.34,0,0-2.44,0-5,0-7.45l3.23,0c2.14,0,3.82.78,3.82,3.64S114.25,150.64,112.2,150.68Zm9.75,2.42c1.19-.59,5.53-2.85,5.48-7.71-0.07-6.52-6.12-8.95-13.56-9-5.95,0-12,.19-17.12.19,0.19,9.45.07,26.6,0,35.13,5.32,0.05,11.08.21,17.09,0.18,7.41,0,14.81-2.4,15.06-9.95C129.11,155.73,123.46,153.7,121.95,153.11ZM144.48,159c0.66-2.32,1.33-4.6,2-6.93a66.89,66.89,0,0,0,1.49-7.06c0.47,2.55,1,4.88,1.65,7.1s1.31,4.67,1.95,6.9h-7Zm9,7.13c0.54,1.92,1.06,3.8,1.59,5.65,4.29,0.05,8.59.11,12.73,0-4.3-11.35-8.9-24.09-12.9-35.3-4.13,0-8.26-.05-12.3,0-3.77,10.25-8.73,23.93-13.13,35.29,3.68,0.08,7.69.07,11.5,0,0.55-1.86,1.09-3.69,1.66-5.68h10.86Zm32.19-12.36c-0.94,0-1.89,0-2.84,0,0-3.16,0-7,0-10h2.66c2.73,0,4.87,1.08,4.84,4.93S188.41,153.77,185.66,153.81Zm1.18-17.31c-6.51,0-11.72.15-16.09,0.21,0.11,9.66.1,26,0,35.11,4.09,0.13,8.43.09,12.19,0,0-3.49-.09-7.56-0.09-10.65,1.63,0,3.23,0,4.79,0,8.47-.27,14.66-3.84,14.71-12.4C202.37,139.54,194.92,136.52,186.84,136.5Zm81,14.69c-3.75,6.5-7.81,13.55-12,20.69-3.82.05-7.67,0.07-11.63,0,0-9.76,0-23.83-.11-35.24,3.48-.1,8.15-0.09,11.51,0-0.18,3.76-.4,7.54-0.65,11.15a78.47,78.47,0,0,1-1.27,9.54c3.75-6.5,7.8-13.55,12-20.69,3.82-.05,7.67-0.07,11.63,0,0,9.77,0,23.83.11,35.24-3.49.1-8.15,0.09-11.51,0,0.17-3.73.39-7.46,0.64-11A72.82,72.82,0,0,1,267.85,151.2ZM114.39,109c-3.89,0-5.9-2.37-5.91-6.52s2.14-6.59,6.12-6.56a12.09,12.09,0,0,1,5.84,1.41c0.31-2.59.62-5.29,0.88-7.94a21,21,0,0,0-9.06-1.68c-10.34,0-16.52,5.64-16.56,15S102,117.29,112,117.29a23.86,23.86,0,0,0,9.43-1.58c-0.26-2.72-.57-5.46-0.88-8.13A14.11,14.11,0,0,1,114.39,109Zm23-8.51c0.17-3.63,1.47-5.83,3.61-5.88s3.18,2.1,3.2,5.56Zm-12.8,2.14c0,9,5.94,14.68,17.26,14.68a28.6,28.6,0,0,0,11.82-2.16c0-2.18-.14-4.88-0.27-7.25a22.59,22.59,0,0,1-9.06,1.68c-3.3-.07-5.67-1.14-6.46-4.21l17.32-.69a16.22,16.22,0,0,0-.08-6.13c-1.33-6.8-6.31-10.84-14.51-10.83C130,87.72,124.6,93.62,124.56,102.63Zm135.39-4.2c0-2.16,1-3.05,2.51-3.32a18.39,18.39,0,0,1,3.1-.2c0,2.17,0,4.84,0,7.11a15.49,15.49,0,0,1-3.14-.22C261,101.49,260,100.62,259.95,98.43Zm-13.73,18.09c4.5,0.09,9.05.05,13.16,0,1.37-2.47,3.25-6.08,4.56-8.4h1.69l-0.15,8.39c4,0,8.27.06,12.31,0-0.09-7.13-.15-18.55,0-28-4.57,0-10.25-.2-15.77-0.2-9,0-13.89,3.59-14,9-0.07,4.63,3,7.26,5.64,8.54C251.17,109.46,248.66,113,246.21,116.52ZM75,154.43c0-7,3.18-10,8.21-10a18.09,18.09,0,0,1,8.12,1.91c0-2.93.08-5.86,0.13-8.79a29,29,0,0,0-10.09-1.7c-11.19,0-19,6.71-19,18.41-0.06,11.86,7.8,18.42,18.9,18.4A31.94,31.94,0,0,0,91.62,171c0-3,0-6-.07-8.94a20.31,20.31,0,0,1-8.22,2.13C78.46,164.2,75,161.34,75,154.43ZM206.6,136.6c4.09-.09,8.13-0.07,12.14,0,0,4.26-.09,9.77-0.13,13.81h1.91c2-3.93,4.56-9.75,6.28-13.83,4.61,0,9.06,0,13.48,0-2.8,5.54-7,12.67-9.7,17.06l10.73,18.2c-4.57.07-9.18,0.09-13.88,0l-6.83-13.36-2,0c0.07,4.44.09,8.72,0.15,13.33-4,.05-8,0.09-12.15,0C206.78,161.45,206.73,146,206.6,136.6ZM127.43,76.84a41.85,41.85,0,0,1,10.62,0v7.4a38.51,38.51,0,0,1-10.62,0v-7.4Zm14.61,0a41.85,41.85,0,0,1,10.62,0v7.4a38.51,38.51,0,0,1-10.62,0v-7.4Z" transform="translate(-62.38 -76.51)"/>
</svg>
